<?xml version="1.0" encoding="UTF-8" standalone="no"?>
<!-- Created with Inkscape (http://www.inkscape.org/) -->
<svg
   xmlns:dc="http://purl.org/dc/elements/1.1/"
   xmlns:cc="http://creativecommons.org/ns#"
   xmlns:rdf="http://www.w3.org/1999/02/22-rdf-syntax-ns#"
   xmlns:svg="http://www.w3.org/2000/svg"
   xmlns="http://www.w3.org/2000/svg"
   xmlns:sodipodi="http://sodipodi.sourceforge.net/DTD/sodipodi-0.dtd"
   xmlns:inkscape="http://www.inkscape.org/namespaces/inkscape"
   id="svg2453"
   sodipodi:version="0.32"
   inkscape:version="0.46"
   width="618"
   height="565"
   version="1.0"
   sodipodi:docname="upclogo.svg"
   inkscape:output_extension="org.inkscape.output.svg.inkscape">
  <metadata
     id="metadata2458">
    <rdf:RDF>
      <cc:Work
         rdf:about="">
        <dc:format>image/svg+xml</dc:format>
        <dc:type
           rdf:resource="http://purl.org/dc/dcmitype/StillImage" />
      </cc:Work>
    </rdf:RDF>
  </metadata>
  <defs
     id="defs2456">
    <inkscape:perspective
       sodipodi:type="inkscape:persp3d"
       inkscape:vp_x="0 : 526.18109 : 1"
       inkscape:vp_y="0 : 1000 : 0"
       inkscape:vp_z="744.09448 : 526.18109 : 1"
       inkscape:persp3d-origin="372.04724 : 350.78739 : 1"
       id="perspective2460" />
  </defs>
  <sodipodi:namedview
     inkscape:window-height="835"
     inkscape:window-width="906"
     inkscape:pageshadow="2"
     inkscape:pageopacity="0.0"
     guidetolerance="10.0"
     gridtolerance="10.0"
     objecttolerance="10.0"
     borderopacity="1.0"
     bordercolor="#666666"
     pagecolor="#ffffff"
     id="base"
     showgrid="false"
     inkscape:zoom="0.43932039"
     inkscape:cx="314.65209"
     inkscape:cy="428.56334"
     inkscape:window-x="677"
     inkscape:window-y="105"
     inkscape:current-layer="svg2453" />
  <path
     style="fill:#2d7cad;fill-opacity:1;stroke:none;stroke-width:2;stroke-linecap:butt;stroke-miterlimit:4;stroke-dasharray:none;stroke-dashoffset:0;stroke-opacity:1"
     d="M 308.99998,16.171871 C 161.99112,16.171871 42.687522,135.47551 42.687522,282.48438 C 42.687522,429.49326 161.99112,548.82811 308.99998,548.82813 C 456.00886,548.82813 575.31248,429.49327 575.31248,282.48438 C 575.31248,135.4755 456.00886,16.171871 308.99998,16.171871 z M 217.15622,92.890621 C 238.03522,92.890621 255.00002,109.82409 255.00002,130.70313 C 255.00002,151.58218 238.03522,168.54688 217.15622,168.54688 C 196.27722,168.54688 179.34372,151.58217 179.34372,130.70313 C 179.34372,109.82409 196.27722,92.890621 217.15622,92.890621 z M 309.31248,92.890621 C 330.19154,92.890621 347.12498,109.82409 347.12498,130.70313 C 347.125,151.58218 330.19152,168.54688 309.31248,168.54688 C 288.43345,168.54688 271.50002,151.58217 271.50002,130.70313 C 271.50002,109.82409 288.43344,92.890621 309.31248,92.890621 z M 401.46873,92.890621 C 422.34779,92.890621 439.28123,109.82409 439.28123,130.70313 C 439.28126,151.58218 422.34777,168.54688 401.46873,168.54688 C 380.58971,168.54688 363.62498,151.58217 363.62498,130.70313 C 363.62499,109.82409 380.58969,92.890621 401.46873,92.890621 z M 217.15622,183.82813 C 238.03522,183.82813 255.00002,200.76159 255.00002,221.64063 C 255.00002,242.51966 238.03522,259.48438 217.15622,259.48438 C 196.27722,259.48438 179.34372,242.51967 179.34372,221.64063 C 179.34372,200.76158 196.27722,183.82813 217.15622,183.82813 z M 309.31248,183.82813 C 330.19154,183.82813 347.12498,200.76159 347.12498,221.64063 C 347.125,242.51966 330.19152,259.48438 309.31248,259.48438 C 288.43345,259.48438 271.50002,242.51967 271.50002,221.64063 C 271.50002,200.76158 288.43344,183.82813 309.31248,183.82813 z M 401.46873,183.82813 C 422.34779,183.82813 439.28123,200.76159 439.28123,221.64063 C 439.28126,242.51966 422.34777,259.48438 401.46873,259.48438 C 380.58971,259.48438 363.62498,242.51967 363.62498,221.64063 C 363.62499,200.76158 380.58969,183.82813 401.46873,183.82813 z M 217.15622,274.76563 C 238.03522,274.76562 255.00002,291.73034 255.00002,312.60938 C 255.00002,333.48842 238.03522,350.42188 217.15622,350.42188 C 196.27722,350.42189 179.34372,333.48842 179.34372,312.60938 C 179.34372,291.73034 196.27722,274.76563 217.15622,274.76563 z M 309.31248,274.76563 C 330.19154,274.76562 347.12498,291.73034 347.12498,312.60938 C 347.125,333.48842 330.19152,350.42188 309.31248,350.42188 C 288.43345,350.42189 271.50002,333.48842 271.50002,312.60938 C 271.50002,291.73034 288.43344,274.76563 309.31248,274.76563 z M 401.46873,274.76563 C 422.34779,274.76562 439.28123,291.73034 439.28123,312.60938 C 439.28126,333.48842 422.34777,350.42188 401.46873,350.42188 C 380.58971,350.42189 363.62498,333.48842 363.62498,312.60938 C 363.62499,291.73034 380.58969,274.76563 401.46873,274.76563 z M 405.62498,382.10938 C 410.04202,382.10947 414.27993,382.66815 418.34373,383.76563 C 422.40739,384.86328 426.31671,386.48478 430.06248,388.64063 L 430.06248,410.79688 C 424.37728,406.23779 417.4895,403.89121 410.24998,403.64063 C 395.79981,403.89357 388.4581,414.32383 388.12498,427.67188 C 387.43886,441.86208 396.24642,451.35085 410.24998,452.39063 C 417.67297,452.47558 424.22911,449.39711 430.06248,445.07813 L 430.06248,466.67188 C 426.31669,468.82782 422.40739,470.44931 418.34373,471.54688 C 414.27993,472.64443 410.04202,473.20312 405.62498,473.20313 C 392.44431,473.20309 382.0159,469.10651 374.31248,460.95313 C 366.60905,452.76058 362.74998,441.66591 362.74998,427.67188 C 362.74995,413.63875 366.60905,402.54406 374.31248,394.39063 C 382.0159,386.19815 392.44431,382.10947 405.62498,382.10938 z M 282.75002,382.57813 L 320.06248,382.57813 C 338.6503,382.57814 349.53123,395.76028 349.53123,411.39063 C 349.53123,428.93041 339.45749,442.39638 320.06248,442.54688 L 305.21873,442.54688 L 305.21873,470.92188 L 282.75002,470.92188 L 282.75002,382.57813 z M 186.18752,383.14063 L 211.28122,383.14063 L 211.28122,436.10938 C 211.28122,443.99929 214.47232,452.04688 224.28122,452.04688 C 234.73352,452.04688 236.93752,443.64381 236.93752,436.10938 L 236.93752,383.14063 L 262.43752,383.14063 L 262.43752,436.10938 C 262.43742,448.61309 259.31342,457.90185 253.03122,464.01563 C 246.74892,470.12942 237.16172,473.20312 224.28122,473.20313 C 211.44012,473.20309 201.87592,470.12941 195.59372,464.01563 C 189.31152,457.90186 186.18742,448.61309 186.18752,436.10938 L 186.18752,383.14063 z M 305.21873,402.92188 L 305.21873,423.17188 L 312.96873,423.17188 C 329.4613,423.17189 328.62458,402.92188 312.96873,402.92188 L 305.21873,402.92188 z"
     id="path3250" />
</svg>
