<?xml version="1.0" encoding="UTF-8" standalone="no"?>
<!-- Generator: Adobe Illustrator 18.0.0, SVG Export Plug-In . SVG Version: 6.00 Build 0)  -->

<svg
   xmlns:dc="http://purl.org/dc/elements/1.1/"
   xmlns:cc="http://creativecommons.org/ns#"
   xmlns:rdf="http://www.w3.org/1999/02/22-rdf-syntax-ns#"
   xmlns:svg="http://www.w3.org/2000/svg"
   xmlns="http://www.w3.org/2000/svg"
   xmlns:sodipodi="http://sodipodi.sourceforge.net/DTD/sodipodi-0.dtd"
   xmlns:inkscape="http://www.inkscape.org/namespaces/inkscape"
   version="1.1"
   id="Capa_1"
   x="0px"
   y="0px"
   viewBox="0 0 480.34 480.34"
   style="enable-background:new 0 0 480.34 480.34;"
   xml:space="preserve"
   sodipodi:docname="broker.svg"
   inkscape:version="0.92.1 r15371"><metadata
     id="metadata250"><rdf:RDF><cc:Work
         rdf:about=""><dc:format>image/svg+xml</dc:format><dc:type
           rdf:resource="http://purl.org/dc/dcmitype/StillImage" /></cc:Work></rdf:RDF></metadata><defs
     id="defs248" /><sodipodi:namedview
     pagecolor="#ffffff"
     bordercolor="#666666"
     borderopacity="1"
     objecttolerance="10"
     gridtolerance="10"
     guidetolerance="10"
     inkscape:pageopacity="0"
     inkscape:pageshadow="2"
     inkscape:window-width="725"
     inkscape:window-height="480"
     id="namedview246"
     showgrid="false"
     inkscape:zoom="0.49131865"
     inkscape:cx="291.05347"
     inkscape:cy="240.17"
     inkscape:window-x="0"
     inkscape:window-y="0"
     inkscape:window-maximized="0"
     inkscape:current-layer="Capa_1" /><g
     id="g4849"><g
       id="g213"><g
         id="XMLID_8_"><g
           id="g208"><path
             id="path2"
             d="M480.08,121.26l0.01,344.48c0,2.21-1.8,4-4,4H4.25c-2.21,0-4-1.79-4-4V121.26c0-2.21,1.79-4,4-4h27.51V20.44     c0-5.43,4.07-9.84,9.08-9.84H220.5c5,0,9.08,4.41,9.08,9.84v96.82h21.18V20.44c0-5.43,4.07-9.84,9.08-9.84H439.5     c5,0,9.08,4.41,9.08,9.84v96.82h27.5C478.29,117.26,480.08,119.05,480.08,121.26z M472.09,461.74V442.6H8.25v19.14H472.09z      M472.08,434.6V125.26h-23.5v13.07c0,2.52-0.89,4.84-2.36,6.67c1.47,1.83,2.36,4.14,2.36,6.67v102.87     c0,5.89-4.79,10.67-10.67,10.67h-52.74v11.39c0,2.21-1.79,4-4,4h-63c-2.21,0-4-1.79-4-4v-11.39h-52.75     c-5.88,0-10.66-4.78-10.66-10.67V151.67c0-2.53,0.88-4.84,2.35-6.67c-1.47-1.83-2.35-4.15-2.35-6.67v-13.07h-21.18v13.07     c0,2.52-0.89,4.84-2.36,6.67c1.47,1.83,2.36,4.14,2.36,6.67v102.87c0,5.89-4.79,10.67-10.67,10.67h-52.74v11.39     c0,2.21-1.79,4-4,4h-63c-2.21,0-4-1.79-4-4v-11.39H42.42c-5.88,0-10.66-4.78-10.66-10.67V151.67c0-2.53,0.88-4.84,2.35-6.67     c-1.47-1.83-2.35-4.15-2.35-6.67v-13.07H8.25V434.6H472.08z M440.58,254.54V151.67c0-1.47-1.2-2.67-2.67-2.67H261.42     c-1.47,0-2.66,1.2-2.66,2.67v102.87c0,1.47,1.19,2.67,2.66,2.67h176.49C439.38,257.21,440.58,256.01,440.58,254.54z      M440.58,138.33V35.45c0-1.47-1.2-2.66-2.67-2.66H261.42c-1.47,0-2.66,1.19-2.66,2.66v102.88c0,1.47,1.19,2.67,2.66,2.67h176.49     C439.38,141,440.58,139.8,440.58,138.33z M440.58,25.14v-4.7c0-1.11-0.65-1.84-1.08-1.84H259.84c-0.43,0-1.08,0.73-1.08,1.84v4.7     c0.85-0.22,1.74-0.35,2.66-0.35h176.49C438.83,24.79,439.72,24.92,440.58,25.14z M377.17,272.6v-7.39h-55v7.39H377.17z      M221.58,254.54V151.67c0-1.47-1.2-2.67-2.67-2.67H42.42c-1.47,0-2.66,1.2-2.66,2.67v102.87c0,1.47,1.19,2.67,2.66,2.67h176.49     C220.38,257.21,221.58,256.01,221.58,254.54z M221.58,138.33V35.45c0-1.47-1.2-2.66-2.67-2.66H42.42c-1.47,0-2.66,1.19-2.66,2.66     v102.88c0,1.47,1.19,2.67,2.66,2.67h176.49C220.38,141,221.58,139.8,221.58,138.33z M221.58,25.14v-4.7     c0-1.11-0.65-1.84-1.08-1.84H40.84c-0.43,0-1.08,0.73-1.08,1.84v4.7c0.85-0.22,1.74-0.35,2.66-0.35h176.49     C219.83,24.79,220.72,24.92,221.58,25.14z M158.17,272.6v-7.39h-55v7.39H158.17z" /><rect
             id="rect4"
             height="19.14"
             width="463.84"
             style="fill:#64A5BC;"
             y="442.6"
             x="8.25" /><path
             id="path6"
             d="M472.08,125.26V434.6H8.25V125.26h23.51v13.07c0,2.52,0.88,4.84,2.35,6.67     c-1.47,1.83-2.35,4.14-2.35,6.67v102.87c0,5.89,4.78,10.67,10.66,10.67h52.75v11.39c0,2.21,1.79,4,4,4h63c2.21,0,4-1.79,4-4     v-11.39h52.74c5.88,0,10.67-4.78,10.67-10.67V151.67c0-2.53-0.89-4.84-2.36-6.67c1.47-1.83,2.36-4.15,2.36-6.67v-13.07h21.18     v13.07c0,2.52,0.88,4.84,2.35,6.67c-1.47,1.83-2.35,4.14-2.35,6.67v102.87c0,5.89,4.78,10.67,10.66,10.67h52.75v11.39     c0,2.21,1.79,4,4,4h63c2.21,0,4-1.79,4-4v-11.39h52.74c5.88,0,10.67-4.78,10.67-10.67V151.67c0-2.53-0.89-4.84-2.36-6.67     c1.47-1.83,2.36-4.15,2.36-6.67v-13.07H472.08z M457.53,357.8v-73.14c0-2.21-1.79-4-4-4h-51.91c-2.21,0-4,1.79-4,4v73.14     c0,2.21,1.79,4,4,4h51.91C455.74,361.8,457.53,360.01,457.53,357.8z M393.81,395.27v-21.73c0-12.99-10.57-23.56-23.57-23.56     h-1.72c-12.99,0-23.56,10.57-23.56,23.56v21.73c0,12.99,10.57,23.56,23.56,23.56h1.72C383.24,418.83,393.81,408.26,393.81,395.27     z M345.63,342.6v-49.06c0-2.21-1.79-4-4-4H166.69c-2.21,0-4,1.79-4,4v49.06c0,2.21,1.79,4,4,4h174.94     C343.84,346.6,345.63,344.81,345.63,342.6z M332.02,430.43c1.56-1.56,1.56-4.1,0-5.66l-55.8-55.8c-1.56-1.56-4.1-1.56-5.66,0     s-1.56,4.09,0,5.66l55.81,55.8c0.78,0.78,1.8,1.17,2.82,1.17C330.22,431.6,331.24,431.21,332.02,430.43z M264.94,418.9v-43.96     c0-4.8-3.9-8.7-8.7-8.7h-79.73c-4.8,0-8.7,3.9-8.7,8.7v4.49h-1.87c-2.21,0-4,1.79-4,4c0,2.21,1.79,4,4,4h1.87v5.49h-1.87     c-2.21,0-4,1.79-4,4c0,2.21,1.79,4,4,4h1.87v5.49h-1.87c-2.21,0-4,1.79-4,4s1.79,4,4,4h1.87v4.49c0,4.8,3.9,8.7,8.7,8.7h79.73     C261.04,427.6,264.94,423.7,264.94,418.9z M150.19,390.81v-12.97v-74.67v-9.63c0-2.21-1.79-4-4-4H32.38c-2.21,0-4,1.79-4,4v9.63     v3.68c-8.25,1.83-14.45,9.2-14.45,18v78.81c0,12.78,10.4,23.18,23.18,23.18s23.18-10.4,23.18-23.18v-8.85h85.9     C148.4,394.81,150.19,393.02,150.19,390.81z"
             style="fill:#7CC1E0;" /><path
             id="path8"
             d="M457.53,284.66v73.14c0,2.21-1.79,4-4,4h-51.91c-2.21,0-4-1.79-4-4v-73.14c0-2.21,1.79-4,4-4h51.91     C455.74,280.66,457.53,282.45,457.53,284.66z M449.53,353.8v-65.14h-43.91v65.14H449.53z" /><path
             id="path10"
             d="M449.53,288.66v65.14h-43.91v-65.14H449.53z M446.75,317.42c0-2.21-1.79-4-4-4h-2.44     c-2.21,0-4,1.79-4,4c0,2.2,1.79,4,4,4h2.44C444.96,321.42,446.75,319.62,446.75,317.42z M446.75,330c0-2.21-1.79-4-4-4h-2.44     c-2.21,0-4,1.79-4,4s1.79,4,4,4h2.44C444.96,334,446.75,332.21,446.75,330z M446.75,342.58c0-2.2-1.79-4-4-4h-2.44     c-2.21,0-4,1.8-4,4c0,2.21,1.79,4,4,4h2.44C444.96,346.58,446.75,344.79,446.75,342.58z M446.16,299.6c0-2.21-1.8-4-4-4h-29.17     c-2.21,0-4,1.79-4,4s1.79,4,4,4h29.17C444.36,303.6,446.16,301.81,446.16,299.6z M432.79,317.42c0-2.21-1.79-4-4-4h-2.44     c-2.21,0-4,1.79-4,4c0,2.2,1.79,4,4,4h2.44C431,321.42,432.79,319.62,432.79,317.42z M432.79,330c0-2.21-1.79-4-4-4h-2.44     c-2.21,0-4,1.79-4,4s1.79,4,4,4h2.44C431,334,432.79,332.21,432.79,330z M432.79,342.58c0-2.2-1.79-4-4-4h-2.44     c-2.21,0-4,1.8-4,4c0,2.21,1.79,4,4,4h2.44C431,346.58,432.79,344.79,432.79,342.58z M418.83,317.42c0-2.21-1.79-4-4-4h-2.44     c-2.21,0-4,1.79-4,4c0,2.2,1.79,4,4,4h2.44C417.04,321.42,418.83,319.62,418.83,317.42z M418.83,330c0-2.21-1.79-4-4-4h-2.44     c-2.21,0-4,1.79-4,4s1.79,4,4,4h2.44C417.04,334,418.83,332.21,418.83,330z M418.83,342.58c0-2.2-1.79-4-4-4h-2.44     c-2.21,0-4,1.8-4,4c0,2.21,1.79,4,4,4h2.44C417.04,346.58,418.83,344.79,418.83,342.58z"
             style="fill:#0071BC;" /><path
             id="path12"
             d="M442.75,313.42c2.21,0,4,1.79,4,4c0,2.2-1.79,4-4,4h-2.44c-2.21,0-4-1.8-4-4c0-2.21,1.79-4,4-4H442.75z" /><path
             id="path14"
             d="M442.75,326c2.21,0,4,1.79,4,4s-1.79,4-4,4h-2.44c-2.21,0-4-1.79-4-4s1.79-4,4-4H442.75z" /><path
             id="path16"
             d="M442.75,338.58c2.21,0,4,1.8,4,4c0,2.21-1.79,4-4,4h-2.44c-2.21,0-4-1.79-4-4c0-2.2,1.79-4,4-4H442.75z" /><path
             id="path18"
             d="M442.16,295.6c2.2,0,4,1.79,4,4s-1.8,4-4,4h-29.17c-2.21,0-4-1.79-4-4s1.79-4,4-4H442.16z" /><path
             id="path20"
             d="M440.58,151.67v102.87c0,1.47-1.2,2.67-2.67,2.67H261.42c-1.47,0-2.66-1.2-2.66-2.67V151.67     c0-1.47,1.19-2.67,2.66-2.67h176.49C439.38,149,440.58,150.2,440.58,151.67z M436.6,243.57v-85.43c0-2.21-1.79-4-4-4H266.73     c-2.21,0-4,1.79-4,4v85.43c0,2.2,1.79,4,4,4H432.6C434.81,247.57,436.6,245.77,436.6,243.57z"
             style="fill:#808080;" /><path
             id="path22"
             d="M440.58,35.45v102.88c0,1.47-1.2,2.67-2.67,2.67H261.42c-1.47,0-2.66-1.2-2.66-2.67V35.45     c0-1.47,1.19-2.66,2.66-2.66h176.49C439.38,32.79,440.58,33.98,440.58,35.45z M436.6,127.35V41.93c0-2.21-1.79-4-4-4H266.73     c-2.21,0-4,1.79-4,4v85.42c0,2.21,1.79,4,4,4H432.6C434.81,131.35,436.6,129.56,436.6,127.35z"
             style="fill:#808080;" /><path
             id="path24"
             d="M440.58,20.44v4.7c-0.86-0.22-1.75-0.35-2.67-0.35H261.42c-0.92,0-1.81,0.13-2.66,0.35v-4.7     c0-1.11,0.65-1.84,1.08-1.84H439.5C439.93,18.6,440.58,19.33,440.58,20.44z"
             style="fill:#B3B3B3;" /><path
             id="path26"
             d="M436.6,158.14v85.43c0,2.2-1.79,4-4,4H266.73c-2.21,0-4-1.8-4-4v-85.43c0-2.21,1.79-4,4-4H432.6     C434.81,154.14,436.6,155.93,436.6,158.14z M428.6,239.57v-77.43H270.73v77.43H428.6z" /><path
             id="path28"
             d="M436.6,41.93v85.42c0,2.21-1.79,4-4,4H266.73c-2.21,0-4-1.79-4-4V41.93c0-2.21,1.79-4,4-4H432.6     C434.81,37.93,436.6,39.72,436.6,41.93z M428.6,123.35V45.93H270.73v77.42H428.6z" /><path
             id="path30"
             d="M428.79,313.42c2.21,0,4,1.79,4,4c0,2.2-1.79,4-4,4h-2.44c-2.21,0-4-1.8-4-4c0-2.21,1.79-4,4-4H428.79z" /><path
             id="path32"
             d="M428.79,326c2.21,0,4,1.79,4,4s-1.79,4-4,4h-2.44c-2.21,0-4-1.79-4-4s1.79-4,4-4H428.79z" /><path
             id="path34"
             d="M428.79,338.58c2.21,0,4,1.8,4,4c0,2.21-1.79,4-4,4h-2.44c-2.21,0-4-1.79-4-4c0-2.2,1.79-4,4-4H428.79z" /><path
             id="path36"
             d="M428.6,162.14v77.43H270.73v-77.43H428.6z M421.69,192.27v-8.5c0-2.21-1.79-4-4-4s-4,1.79-4,4v8.5     c0,2.21,1.79,4,4,4S421.69,194.48,421.69,192.27z M412.1,196.83v-8.5c0-2.21-1.79-4-4-4s-4,1.79-4,4v8.5c0,2.21,1.79,4,4,4     S412.1,199.04,412.1,196.83z M402.5,210.52v-8.5c0-2.21-1.79-4-4-4s-4,1.79-4,4v8.5c0,2.21,1.79,4,4,4S402.5,212.73,402.5,210.52     z M392.91,219.65v-8.5c0-2.21-1.79-4-4-4s-4,1.79-4,4v8.5c0,2.21,1.79,4,4,4S392.91,221.86,392.91,219.65z M383.31,215.09v-8.5     c0-2.21-1.79-4-4-4s-4,1.79-4,4v8.5c0,2.21,1.79,4,4,4S383.31,217.3,383.31,215.09z M373.72,203.68v-8.5c0-2.21-1.79-4-4-4     s-4,1.79-4,4v8.5c0,2.21,1.79,4,4,4S373.72,205.89,373.72,203.68z M364.12,199.11v-8.5c0-2.21-1.79-4-4-4s-4,1.79-4,4v8.5     c0,2.21,1.79,4,4,4S364.12,201.32,364.12,199.11z M354.53,208.24v-8.5c0-2.21-1.79-4-4-4s-4,1.79-4,4v8.5c0,2.21,1.79,4,4,4     S354.53,210.45,354.53,208.24z M344.93,217.37v-8.5c0-2.21-1.79-4-4-4c-2.21,0-4,1.79-4,4v8.5c0,2.21,1.79,4,4,4     C343.14,221.37,344.93,219.58,344.93,217.37z M335.34,205.96v-8.5c0-2.21-1.79-4-4-4s-4,1.79-4,4v8.5c0,2.21,1.79,4,4,4     S335.34,208.17,335.34,205.96z M325.74,194.55v-8.5c0-2.21-1.79-4-4-4c-2.21,0-4,1.79-4,4v8.5c0,2.21,1.79,4,4,4     C323.95,198.55,325.74,196.76,325.74,194.55z M316.15,201.4v-8.5c0-2.21-1.8-4-4-4c-2.21,0-4,1.79-4,4v8.5c0,2.2,1.79,4,4,4     C314.35,205.4,316.15,203.6,316.15,201.4z M306.55,212.81v-8.5c0-2.21-1.79-4-4-4c-2.21,0-4,1.79-4,4v8.5c0,2.2,1.79,4,4,4     C304.76,216.81,306.55,215.01,306.55,212.81z M296.96,221.93v-8.5c0-2.21-1.8-4-4-4c-2.21,0-4,1.79-4,4v8.5c0,2.21,1.79,4,4,4     C295.16,225.93,296.96,224.14,296.96,221.93z M287.19,227.1v-8.5c0-2.21-1.79-4-4-4s-4,1.79-4,4v8.5c0,2.21,1.79,4,4,4     S287.19,229.31,287.19,227.1z"
             style="fill:#E6E6E6;" /><path
             id="path38"
             d="M428.6,45.93v77.42H270.73V45.93H428.6z M415.67,113.64v-21c0-2.21-1.79-4-4-4h-124     c-2.21,0-4,1.79-4,4v21c0,2.21,1.79,4,4,4h124C413.88,117.64,415.67,115.85,415.67,113.64z M415.67,76.64v-21c0-2.21-1.79-4-4-4     h-124c-2.21,0-4,1.79-4,4v21c0,2.21,1.79,4,4,4h124C413.88,80.64,415.67,78.85,415.67,76.64z"
             style="fill:#0071BC;" /><path
             id="path40"
             d="M421.69,183.77v8.5c0,2.21-1.79,4-4,4s-4-1.79-4-4v-8.5c0-2.21,1.79-4,4-4S421.69,181.56,421.69,183.77z" /><path
             id="path42"
             d="M414.83,313.42c2.21,0,4,1.79,4,4c0,2.2-1.79,4-4,4h-2.44c-2.21,0-4-1.8-4-4c0-2.21,1.79-4,4-4H414.83z" /><path
             id="path44"
             d="M414.83,326c2.21,0,4,1.79,4,4s-1.79,4-4,4h-2.44c-2.21,0-4-1.79-4-4s1.79-4,4-4H414.83z" /><path
             id="path46"
             d="M414.83,338.58c2.21,0,4,1.8,4,4c0,2.21-1.79,4-4,4h-2.44c-2.21,0-4-1.79-4-4c0-2.2,1.79-4,4-4H414.83z" /><path
             id="path48"
             d="M415.67,92.64v21c0,2.21-1.79,4-4,4h-124c-2.21,0-4-1.79-4-4v-21c0-2.21,1.79-4,4-4h124     C413.88,88.64,415.67,90.43,415.67,92.64z M407.67,109.64v-13h-116v13H407.67z" /><path
             id="path50"
             d="M415.67,55.64v21c0,2.21-1.79,4-4,4h-124c-2.21,0-4-1.79-4-4v-21c0-2.21,1.79-4,4-4h124     C413.88,51.64,415.67,53.43,415.67,55.64z M407.67,72.64v-13h-116v13H407.67z" /><path
             id="path52"
             d="M412.1,188.33v8.5c0,2.21-1.79,4-4,4s-4-1.79-4-4v-8.5c0-2.21,1.79-4,4-4S412.1,186.12,412.1,188.33z" /><rect
             id="rect54"
             height="13"
             width="116"
             style="fill:#E8653D;"
             y="96.64"
             x="291.67" /><rect
             id="rect56"
             height="13"
             width="116"
             style="fill:#E8653D;"
             y="59.64"
             x="291.67" /><path
             id="path58"
             d="M402.5,202.02v8.5c0,2.21-1.79,4-4,4s-4-1.79-4-4v-8.5c0-2.21,1.79-4,4-4S402.5,199.81,402.5,202.02z" /><path
             id="path60"
             d="M393.81,373.54v21.73c0,12.99-10.57,23.56-23.57,23.56h-1.72c-12.99,0-23.56-10.57-23.56-23.56v-21.73     c0-12.99,10.57-23.56,23.56-23.56h1.72C383.24,349.98,393.81,360.55,393.81,373.54z M385.81,395.27V383.6h-32.85v11.67     c0,8.58,6.98,15.56,15.56,15.56h1.72C378.82,410.83,385.81,403.85,385.81,395.27z M385.81,375.6v-2.06     c0-7.5-5.35-13.78-12.43-15.24v17.3H385.81z M365.38,375.6v-17.3c-7.08,1.46-12.42,7.74-12.42,15.24v2.06H365.38z" /><path
             id="path62"
             d="M392.91,211.15v8.5c0,2.21-1.79,4-4,4s-4-1.79-4-4v-8.5c0-2.21,1.79-4,4-4S392.91,208.94,392.91,211.15z" /><path
             id="path64"
             d="M385.81,383.6v11.67c0,8.58-6.99,15.56-15.57,15.56h-1.72c-8.58,0-15.56-6.98-15.56-15.56V383.6     H385.81z"
             style="fill:#E6E6E6;" /><path
             id="path66"
             d="M385.81,373.54v2.06h-12.43v-17.3C380.46,359.76,385.81,366.04,385.81,373.54z"
             style="fill:#FFFFFF;" /><path
             id="path68"
             d="M383.31,206.59v8.5c0,2.21-1.79,4-4,4s-4-1.79-4-4v-8.5c0-2.21,1.79-4,4-4S383.31,204.38,383.31,206.59z" /><rect
             id="rect70"
             height="7.39"
             width="55"
             style="fill:#4D4D4D;"
             y="265.21"
             x="322.17" /><path
             id="path72"
             d="M373.72,195.18v8.5c0,2.21-1.79,4-4,4s-4-1.79-4-4v-8.5c0-2.21,1.79-4,4-4S373.72,192.97,373.72,195.18z" /><path
             id="path74"
             d="M365.38,358.3v17.3h-12.42v-2.06C352.96,366.04,358.3,359.76,365.38,358.3z"
             style="fill:#FFFFFF;" /><path
             id="path76"
             d="M364.12,190.61v8.5c0,2.21-1.79,4-4,4s-4-1.79-4-4v-8.5c0-2.21,1.79-4,4-4S364.12,188.4,364.12,190.61z" /><path
             id="path78"
             d="M354.53,199.74v8.5c0,2.21-1.79,4-4,4s-4-1.79-4-4v-8.5c0-2.21,1.79-4,4-4S354.53,197.53,354.53,199.74z" /><path
             id="path80"
             d="M345.63,293.54v49.06c0,2.21-1.79,4-4,4H166.69c-2.21,0-4-1.79-4-4v-49.06c0-2.21,1.79-4,4-4h174.94     C343.84,289.54,345.63,291.33,345.63,293.54z M337.63,338.6v-8.35h-12.84v8.35H337.63z M337.63,322.25v-8.36h-4.66v8.36H337.63z      M337.63,305.89v-8.35h-12.84v8.35H337.63z M324.97,322.25v-8.36h-8.35v8.36H324.97z M316.79,338.6v-8.35h-14.21v8.35H316.79z      M316.79,305.89v-8.35h-14.21v8.35H316.79z M308.62,322.25v-8.36h-14.21v8.36H308.62z M294.58,338.6v-8.35h-14.21v8.35H294.58z      M294.58,305.89v-8.35h-14.21v8.35H294.58z M286.41,322.25v-8.36h-14.22v8.36H286.41z M272.37,338.6v-8.35h-36.42v8.35H272.37z      M272.37,305.89v-8.35h-14.21v8.35H272.37z M264.19,322.25v-8.36h-14.21v8.36H264.19z M250.16,305.89v-8.35h-14.21v8.35H250.16z      M241.98,322.25v-8.36h-14.21v8.36H241.98z M227.95,338.6v-8.35h-14.21v8.35H227.95z M227.95,305.89v-8.35h-14.21v8.35H227.95z      M219.77,322.25v-8.36h-14.21v8.36H219.77z M205.74,338.6v-8.35h-14.22v8.35H205.74z M205.74,305.89v-8.35h-14.22v8.35H205.74z      M197.56,322.25v-8.36h-14.21v8.36H197.56z M183.52,338.6v-8.35h-12.83v8.35H183.52z M183.52,305.89v-8.35h-12.83v8.35H183.52z      M175.35,322.25v-8.36h-4.66v8.36H175.35z" /><path
             id="path82"
             d="M344.93,208.87v8.5c0,2.21-1.79,4-4,4c-2.21,0-4-1.79-4-4v-8.5c0-2.21,1.79-4,4-4     C343.14,204.87,344.93,206.66,344.93,208.87z" /><rect
             id="rect84"
             height="8.35"
             width="12.84"
             style="fill:#4D4D4D;"
             y="330.25"
             x="324.79" /><rect
             id="rect86"
             height="8.36"
             width="4.66"
             style="fill:#4D4D4D;"
             y="313.89"
             x="332.97" /><rect
             id="rect88"
             height="8.35"
             width="12.84"
             style="fill:#4D4D4D;"
             y="297.54"
             x="324.79" /><path
             id="path90"
             d="M335.34,197.46v8.5c0,2.21-1.79,4-4,4s-4-1.79-4-4v-8.5c0-2.21,1.79-4,4-4S335.34,195.25,335.34,197.46z" /><path
             id="path92"
             d="M332.02,424.77c1.56,1.56,1.56,4.1,0,5.66c-0.78,0.78-1.8,1.17-2.83,1.17c-1.02,0-2.04-0.39-2.82-1.17l-55.81-55.8     c-1.56-1.57-1.56-4.1,0-5.66s4.1-1.56,5.66,0L332.02,424.77z" /><path
             id="path94"
             d="M325.74,186.05v8.5c0,2.21-1.79,4-4,4c-2.21,0-4-1.79-4-4v-8.5c0-2.21,1.79-4,4-4     C323.95,182.05,325.74,183.84,325.74,186.05z" /><rect
             id="rect96"
             height="8.36"
             width="8.35"
             style="fill:#4D4D4D;"
             y="313.89"
             x="316.62" /><rect
             id="rect98"
             height="8.35"
             width="14.21"
             style="fill:#4D4D4D;"
             y="330.25"
             x="302.58" /><rect
             id="rect100"
             height="8.35"
             width="14.21"
             style="fill:#4D4D4D;"
             y="297.54"
             x="302.58" /><path
             id="path102"
             d="M316.15,192.9v8.5c0,2.2-1.8,4-4,4c-2.21,0-4-1.8-4-4v-8.5c0-2.21,1.79-4,4-4C314.35,188.9,316.15,190.69,316.15,192.9z" /><rect
             id="rect104"
             height="8.36"
             width="14.21"
             style="fill:#4D4D4D;"
             y="313.89"
             x="294.41" /><path
             id="path106"
             d="M306.55,204.31v8.5c0,2.2-1.79,4-4,4c-2.21,0-4-1.8-4-4v-8.5c0-2.21,1.79-4,4-4     C304.76,200.31,306.55,202.1,306.55,204.31z" /><path
             id="path108"
             d="M296.96,213.43v8.5c0,2.21-1.8,4-4,4c-2.21,0-4-1.79-4-4v-8.5c0-2.21,1.79-4,4-4     C295.16,209.43,296.96,211.22,296.96,213.43z" /><rect
             id="rect110"
             height="8.35"
             width="14.21"
             style="fill:#4D4D4D;"
             y="330.25"
             x="280.37" /><rect
             id="rect112"
             height="8.35"
             width="14.21"
             style="fill:#4D4D4D;"
             y="297.54"
             x="280.37" /><path
             id="path114"
             d="M287.19,218.6v8.5c0,2.21-1.79,4-4,4s-4-1.79-4-4v-8.5c0-2.21,1.79-4,4-4S287.19,216.39,287.19,218.6z" /><rect
             id="rect116"
             height="8.36"
             width="14.22"
             style="fill:#4D4D4D;"
             y="313.89"
             x="272.19" /><rect
             id="rect118"
             height="8.35"
             width="36.42"
             style="fill:#4D4D4D;"
             y="330.25"
             x="235.95" /><rect
             id="rect120"
             height="8.35"
             width="14.21"
             style="fill:#4D4D4D;"
             y="297.54"
             x="258.16" /><path
             id="path122"
             d="M264.94,374.94v43.96c0,4.8-3.9,8.7-8.7,8.7h-79.73c-4.8,0-8.7-3.9-8.7-8.7v-4.49h-1.87c-2.21,0-4-1.79-4-4s1.79-4,4-4     h1.87v-5.49h-1.87c-2.21,0-4-1.79-4-4c0-2.21,1.79-4,4-4h1.87v-5.49h-1.87c-2.21,0-4-1.79-4-4c0-2.21,1.79-4,4-4h1.87v-4.49     c0-4.8,3.9-8.7,8.7-8.7h79.73C261.04,366.24,264.94,370.14,264.94,374.94z M256.94,418.9v-43.96c0-0.39-0.31-0.7-0.7-0.7h-79.73     c-0.39,0-0.7,0.31-0.7,0.7v4.49h2.45c2.21,0,4,1.79,4,4c0,2.21-1.79,4-4,4h-2.45v5.49h2.45c2.21,0,4,1.79,4,4c0,2.21-1.79,4-4,4     h-2.45v5.49h2.45c2.21,0,4,1.79,4,4s-1.79,4-4,4h-2.45v4.49c0,0.39,0.31,0.7,0.7,0.7h79.73     C256.63,419.6,256.94,419.29,256.94,418.9z" /><rect
             id="rect124"
             height="8.36"
             width="14.21"
             style="fill:#4D4D4D;"
             y="313.89"
             x="249.98" /><path
             id="path126"
             d="M256.94,374.94v43.96c0,0.39-0.31,0.7-0.7,0.7h-79.73c-0.39,0-0.7-0.31-0.7-0.7v-4.49h2.45     c2.21,0,4-1.79,4-4s-1.79-4-4-4h-2.45v-5.49h2.45c2.21,0,4-1.79,4-4c0-2.21-1.79-4-4-4h-2.45v-5.49h2.45c2.21,0,4-1.79,4-4     c0-2.21-1.79-4-4-4h-2.45v-4.49c0-0.39,0.31-0.7,0.7-0.7h79.73C256.63,374.24,256.94,374.55,256.94,374.94z"
             style="fill:#0071BC;" /><rect
             id="rect128"
             height="8.35"
             width="14.21"
             style="fill:#4D4D4D;"
             y="297.54"
             x="235.95" /><rect
             id="rect130"
             height="8.36"
             width="14.21"
             style="fill:#4D4D4D;"
             y="313.89"
             x="227.77" /><rect
             id="rect132"
             height="8.35"
             width="14.21"
             style="fill:#4D4D4D;"
             y="330.25"
             x="213.74" /><rect
             id="rect134"
             height="8.35"
             width="14.21"
             style="fill:#4D4D4D;"
             y="297.54"
             x="213.74" /><path
             id="path136"
             d="M221.58,151.67v102.87c0,1.47-1.2,2.67-2.67,2.67H42.42c-1.47,0-2.66-1.2-2.66-2.67V151.67     c0-1.47,1.19-2.67,2.66-2.67h176.49C220.38,149,221.58,150.2,221.58,151.67z M217.6,243.57v-85.43c0-2.21-1.79-4-4-4H47.73     c-2.21,0-4,1.79-4,4v85.43c0,2.2,1.79,4,4,4H213.6C215.81,247.57,217.6,245.77,217.6,243.57z"
             style="fill:#808080;" /><path
             id="path138"
             d="M221.58,35.45v102.88c0,1.47-1.2,2.67-2.67,2.67H42.42c-1.47,0-2.66-1.2-2.66-2.67V35.45     c0-1.47,1.19-2.66,2.66-2.66h176.49C220.38,32.79,221.58,33.98,221.58,35.45z M217.6,127.35V41.93c0-2.21-1.79-4-4-4H47.73     c-2.21,0-4,1.79-4,4v85.42c0,2.21,1.79,4,4,4H213.6C215.81,131.35,217.6,129.56,217.6,127.35z"
             style="fill:#808080;" /><path
             id="path140"
             d="M221.58,20.44v4.7c-0.86-0.22-1.75-0.35-2.67-0.35H42.42c-0.92,0-1.81,0.13-2.66,0.35v-4.7     c0-1.11,0.65-1.84,1.08-1.84H220.5C220.93,18.6,221.58,19.33,221.58,20.44z"
             style="fill:#B3B3B3;" /><rect
             id="rect142"
             height="8.36"
             width="14.21"
             style="fill:#4D4D4D;"
             y="313.89"
             x="205.56" /><path
             id="path144"
             d="M217.6,158.14v85.43c0,2.2-1.79,4-4,4H47.73c-2.21,0-4-1.8-4-4v-85.43c0-2.21,1.79-4,4-4H213.6     C215.81,154.14,217.6,155.93,217.6,158.14z M209.6,239.57v-77.43H51.73v77.43H209.6z" /><path
             id="path146"
             d="M217.6,41.93v85.42c0,2.21-1.79,4-4,4H47.73c-2.21,0-4-1.79-4-4V41.93c0-2.21,1.79-4,4-4H213.6     C215.81,37.93,217.6,39.72,217.6,41.93z M209.6,123.35V45.93H51.73v77.42H209.6z" /><path
             id="path148"
             d="M209.6,162.14v77.43H51.73v-77.43H209.6z M194.88,181.92c1.56-1.37,1.72-3.73,0.35-5.29     c-1.36-1.55-3.72-1.71-5.28-0.35l-37.03,32.46l-15.29-13.4c-1.41-1.23-3.52-1.23-4.93,0l-24.28,21.28l-22.04-19.3     c-1.41-1.24-3.52-1.24-4.93,0l-15,13.14c-1.56,1.36-1.71,3.73-0.35,5.28c1.36,1.56,3.73,1.72,5.28,0.35l12.54-10.98l22.03,19.31     c0.71,0.62,1.59,0.93,2.47,0.93c0.88,0,1.76-0.31,2.46-0.93l24.29-21.28l15.28,13.39c1.41,1.24,3.52,1.24,4.93,0L194.88,181.92z"
             style="fill:#E8653D;" /><path
             id="path150"
             d="M209.6,45.93v77.42H51.73V45.93H209.6z M191.38,79.6c0.82-2.05-0.17-4.38-2.22-5.21     c-2.05-0.82-4.38,0.16-5.2,2.21l-9.27,22.97l-16.23-15.83c-1.43-1.4-3.68-1.52-5.26-0.29l-8.54,6.69l-13.5-15.2     c-1.28-1.43-3.4-1.76-5.05-0.77l-6.65,3.99l-7.41-11.7c-1.18-1.86-3.65-2.42-5.52-1.24l-5.28,3.34l-5.32-14.81     c-0.57-1.6-2.08-2.7-3.8-2.65c-1.7,0.02-3.2,1.1-3.75,2.72l-18.5,54.5c-0.71,2.09,0.41,4.36,2.5,5.07     c0.43,0.14,0.86,0.21,1.29,0.21c1.66,0,3.22-1.05,3.79-2.71l14.81-43.66l3.13,8.72c0.41,1.14,1.32,2.04,2.47,2.43     c1.14,0.4,2.41,0.25,3.43-0.4l6.12-3.86l7.37,11.62c1.16,1.83,3.57,2.41,5.43,1.29l7.16-4.29l13.8,15.52     c1.4,1.58,3.79,1.79,5.45,0.49l8.75-6.84l17.99,17.55c0.96,0.93,2.31,1.33,3.62,1.06c1.3-0.28,2.39-1.19,2.89-2.42L191.38,79.6z"
             style="fill:#E6E6E6;" /><rect
             id="rect152"
             height="8.35"
             width="14.22"
             style="fill:#4D4D4D;"
             y="330.25"
             x="191.52" /><rect
             id="rect154"
             height="8.35"
             width="14.22"
             style="fill:#4D4D4D;"
             y="297.54"
             x="191.52" /><rect
             id="rect156"
             height="8.36"
             width="14.21"
             style="fill:#4D4D4D;"
             y="313.89"
             x="183.35" /><path
             id="path158"
             d="M195.23,176.63c1.37,1.56,1.21,3.92-0.35,5.29l-39.5,34.61c-1.41,1.24-3.52,1.24-4.93,0l-15.28-13.39l-24.29,21.28     c-0.7,0.62-1.58,0.93-2.46,0.93c-0.88,0-1.76-0.31-2.47-0.93l-22.03-19.31l-12.54,10.98c-1.55,1.37-3.92,1.21-5.28-0.35     c-1.36-1.55-1.21-3.92,0.35-5.28l15-13.14c1.41-1.24,3.52-1.24,4.93,0l22.04,19.3l24.28-21.28c1.41-1.23,3.52-1.23,4.93,0     l15.29,13.4l37.03-32.46C191.51,174.92,193.87,175.08,195.23,176.63z" /><path
             id="path160"
             d="M189.16,74.39c2.05,0.83,3.04,3.16,2.22,5.21l-11.5,28.5c-0.5,1.23-1.59,2.14-2.89,2.42c-1.31,0.27-2.66-0.13-3.62-1.06     l-17.99-17.55l-8.75,6.84c-1.66,1.3-4.05,1.09-5.45-0.49l-13.8-15.52l-7.16,4.29c-1.86,1.12-4.27,0.54-5.43-1.29l-7.37-11.62     l-6.12,3.86c-1.02,0.65-2.29,0.8-3.43,0.4c-1.15-0.39-2.06-1.29-2.47-2.43l-3.13-8.72l-14.81,43.66     c-0.57,1.66-2.13,2.71-3.79,2.71c-0.43,0-0.86-0.07-1.29-0.21c-2.09-0.71-3.21-2.98-2.5-5.07l18.5-54.5     c0.55-1.62,2.05-2.7,3.75-2.72c1.72-0.05,3.23,1.05,3.8,2.65l5.32,14.81l5.28-3.34c1.87-1.18,4.34-0.62,5.52,1.24l7.41,11.7     l6.65-3.99c1.65-0.99,3.77-0.66,5.05,0.77l13.5,15.2l8.54-6.69c1.58-1.23,3.83-1.11,5.26,0.29l16.23,15.83l9.27-22.97     C184.78,74.55,187.11,73.57,189.16,74.39z" /><rect
             id="rect162"
             height="8.35"
             width="12.83"
             style="fill:#4D4D4D;"
             y="330.25"
             x="170.69" /><rect
             id="rect164"
             height="8.35"
             width="12.83"
             style="fill:#4D4D4D;"
             y="297.54"
             x="170.69" /><rect
             id="rect166"
             height="8.36"
             width="4.66"
             style="fill:#4D4D4D;"
             y="313.89"
             x="170.69" /><rect
             id="rect168"
             height="7.39"
             width="55"
             style="fill:#4D4D4D;"
             y="265.21"
             x="103.17" /><path
             id="path170"
             d="M150.19,377.84v12.97c0,2.21-1.79,4-4,4h-85.9v8.85c0,12.78-10.4,23.18-23.18,23.18s-23.18-10.4-23.18-23.18v-78.81     c0-8.8,6.2-16.17,14.45-18v-3.68v-9.63c0-2.21,1.79-4,4-4h113.81c2.21,0,4,1.79,4,4v9.63V377.84z M142.19,386.81v-4.97h-81.9     v4.97H142.19z M142.19,373.84v-70.67v-5.63H36.38v5.63v70.67h15.91v-5.85h-3c-3.83,0-6.94-3.11-6.94-6.93v-51.94     c0-3.83,3.11-6.94,6.94-6.94h14c3.82,0,6.93,3.11,6.93,6.94v51.94c0,3.82-3.11,6.93-6.93,6.93h-3v5.85H142.19z M62.22,359.99     v-49.81H50.35v49.81H62.22z M52.29,403.66v-8.85H32.38c-2.21,0-4-1.79-4-4v-12.97V315.2c-3.78,1.57-6.45,5.3-6.45,9.65v78.81     c0,8.37,6.81,15.18,15.18,15.18S52.29,412.03,52.29,403.66z M52.29,386.81v-4.97H36.38v4.97H52.29z" /><rect
             id="rect172"
             height="4.97"
             width="81.9"
             style="fill:#B3B3B3;"
             y="381.84"
             x="60.29" /><path
             id="path174"
             d="M142.19,303.17v70.67h-81.9v-5.85h3c3.82,0,6.93-3.11,6.93-6.93v-51.94     c0-3.83-3.11-6.94-6.93-6.94h-14c-3.83,0-6.94,3.11-6.94,6.94v51.94c0,3.82,3.11,6.93,6.94,6.93h3v5.85H36.38v-70.67v-5.63     h105.81V303.17z M135.14,310.04c0-2.21-1.79-4-4-4H89.36c-2.21,0-4,1.79-4,4c0,2.21,1.79,4,4,4h41.78     C133.35,314.04,135.14,312.25,135.14,310.04z M135.14,324.25c0-2.21-1.79-4-4-4h-5.27c-2.21,0-4,1.79-4,4s1.79,4,4,4h5.27     C133.35,328.25,135.14,326.46,135.14,324.25z M135.14,336.9c0-2.21-1.79-4-4-4h-5.27c-2.21,0-4,1.79-4,4c0,2.2,1.79,4,4,4h5.27     C133.35,340.9,135.14,339.1,135.14,336.9z M135.14,349.54c0-2.21-1.79-4-4-4h-5.27c-2.21,0-4,1.79-4,4c0,2.21,1.79,4,4,4h5.27     C133.35,353.54,135.14,351.75,135.14,349.54z M135.14,362.19c0-2.21-1.79-4-4-4h-5.27c-2.21,0-4,1.79-4,4s1.79,4,4,4h5.27     C133.35,366.19,135.14,364.4,135.14,362.19z M116.88,324.25c0-2.21-1.79-4-4-4h-5.26c-2.21,0-4,1.79-4,4s1.79,4,4,4h5.26     C115.09,328.25,116.88,326.46,116.88,324.25z M116.88,336.9c0-2.21-1.79-4-4-4h-5.26c-2.21,0-4,1.79-4,4c0,2.2,1.79,4,4,4h5.26     C115.09,340.9,116.88,339.1,116.88,336.9z M116.88,349.54c0-2.21-1.79-4-4-4h-5.26c-2.21,0-4,1.79-4,4c0,2.21,1.79,4,4,4h5.26     C115.09,353.54,116.88,351.75,116.88,349.54z M116.88,362.19c0-2.21-1.79-4-4-4h-5.26c-2.21,0-4,1.79-4,4s1.79,4,4,4h5.26     C115.09,366.19,116.88,364.4,116.88,362.19z M98.63,324.25c0-2.21-1.79-4-4-4h-5.27c-2.21,0-4,1.79-4,4s1.79,4,4,4h5.27     C96.84,328.25,98.63,326.46,98.63,324.25z M98.63,336.9c0-2.21-1.79-4-4-4h-5.27c-2.21,0-4,1.79-4,4c0,2.2,1.79,4,4,4h5.27     C96.84,340.9,98.63,339.1,98.63,336.9z M98.63,349.54c0-2.21-1.79-4-4-4h-5.27c-2.21,0-4,1.79-4,4c0,2.21,1.79,4,4,4h5.27     C96.84,353.54,98.63,351.75,98.63,349.54z M98.63,362.19c0-2.21-1.79-4-4-4h-5.27c-2.21,0-4,1.79-4,4s1.79,4,4,4h5.27     C96.84,366.19,98.63,364.4,98.63,362.19z"
             style="fill:#E6E6E6;" /><path
             id="path176"
             d="M131.14,306.04c2.21,0,4,1.79,4,4c0,2.21-1.79,4-4,4H89.36c-2.21,0-4-1.79-4-4c0-2.21,1.79-4,4-4H131.14z" /><path
             id="path178"
             d="M131.14,320.25c2.21,0,4,1.79,4,4s-1.79,4-4,4h-5.27c-2.21,0-4-1.79-4-4s1.79-4,4-4H131.14z" /><path
             id="path180"
             d="M131.14,332.9c2.21,0,4,1.79,4,4c0,2.2-1.79,4-4,4h-5.27c-2.21,0-4-1.8-4-4c0-2.21,1.79-4,4-4H131.14z" /><path
             id="path182"
             d="M131.14,345.54c2.21,0,4,1.79,4,4c0,2.21-1.79,4-4,4h-5.27c-2.21,0-4-1.79-4-4c0-2.21,1.79-4,4-4H131.14z" /><path
             id="path184"
             d="M131.14,358.19c2.21,0,4,1.79,4,4s-1.79,4-4,4h-5.27c-2.21,0-4-1.79-4-4s1.79-4,4-4H131.14z" /><path
             id="path186"
             d="M112.88,320.25c2.21,0,4,1.79,4,4s-1.79,4-4,4h-5.26c-2.21,0-4-1.79-4-4s1.79-4,4-4H112.88z" /><path
             id="path188"
             d="M112.88,332.9c2.21,0,4,1.79,4,4c0,2.2-1.79,4-4,4h-5.26c-2.21,0-4-1.8-4-4c0-2.21,1.79-4,4-4H112.88z" /><path
             id="path190"
             d="M112.88,345.54c2.21,0,4,1.79,4,4c0,2.21-1.79,4-4,4h-5.26c-2.21,0-4-1.79-4-4c0-2.21,1.79-4,4-4H112.88z" /><path
             id="path192"
             d="M112.88,358.19c2.21,0,4,1.79,4,4s-1.79,4-4,4h-5.26c-2.21,0-4-1.79-4-4s1.79-4,4-4H112.88z" /><path
             id="path194"
             d="M94.63,320.25c2.21,0,4,1.79,4,4s-1.79,4-4,4h-5.27c-2.21,0-4-1.79-4-4s1.79-4,4-4H94.63z" /><path
             id="path196"
             d="M94.63,332.9c2.21,0,4,1.79,4,4c0,2.2-1.79,4-4,4h-5.27c-2.21,0-4-1.8-4-4c0-2.21,1.79-4,4-4H94.63z" /><path
             id="path198"
             d="M94.63,345.54c2.21,0,4,1.79,4,4c0,2.21-1.79,4-4,4h-5.27c-2.21,0-4-1.79-4-4c0-2.21,1.79-4,4-4H94.63z" /><path
             id="path200"
             d="M94.63,358.19c2.21,0,4,1.79,4,4s-1.79,4-4,4h-5.27c-2.21,0-4-1.79-4-4s1.79-4,4-4H94.63z" /><rect
             id="rect202"
             height="49.81"
             width="11.87"
             style="fill:#FFFFFF;"
             y="310.18"
             x="50.35" /><path
             id="path204"
             d="M52.29,394.81v8.85c0,8.37-6.81,15.18-15.18,15.18s-15.18-6.81-15.18-15.18v-78.81     c0-4.35,2.67-8.08,6.45-9.65v62.64v12.97c0,2.21,1.79,4,4,4H52.29z"
             style="fill:#7CC1E0;" /><rect
             id="rect206"
             height="4.97"
             width="15.91"
             style="fill:#B3B3B3;"
             y="381.84"
             x="36.38" /></g><g
           id="g210" /></g></g><g
       id="g215" /><g
       id="g217" /><g
       id="g219" /><g
       id="g221" /><g
       id="g223" /><g
       id="g225" /><g
       id="g227" /><g
       id="g229" /><g
       id="g231" /><g
       id="g233" /><g
       id="g235" /><g
       id="g237" /><g
       id="g239" /><g
       id="g241" /><g
       id="g243" /></g></svg>