<?xml version="1.0" encoding="UTF-8" standalone="no"?>
<!-- Generator: Adobe Illustrator 19.0.0, SVG Export Plug-In . SVG Version: 6.00 Build 0)  -->

<svg
   xmlns:dc="http://purl.org/dc/elements/1.1/"
   xmlns:cc="http://creativecommons.org/ns#"
   xmlns:rdf="http://www.w3.org/1999/02/22-rdf-syntax-ns#"
   xmlns:svg="http://www.w3.org/2000/svg"
   xmlns="http://www.w3.org/2000/svg"
   xmlns:sodipodi="http://sodipodi.sourceforge.net/DTD/sodipodi-0.dtd"
   xmlns:inkscape="http://www.inkscape.org/namespaces/inkscape"
   version="1.1"
   id="Capa_1"
   x="0px"
   y="0px"
   viewBox="0 0 480 480"
   style="enable-background:new 0 0 480 480;"
   xml:space="preserve"
   sodipodi:docname="offer.svg"
   inkscape:version="0.92.1 r15371"><metadata
     id="metadata93"><rdf:RDF><cc:Work
         rdf:about=""><dc:format>image/svg+xml</dc:format><dc:type
           rdf:resource="http://purl.org/dc/dcmitype/StillImage" /></cc:Work></rdf:RDF></metadata><defs
     id="defs91" /><sodipodi:namedview
     pagecolor="#ffffff"
     bordercolor="#666666"
     borderopacity="1"
     objecttolerance="10"
     gridtolerance="10"
     guidetolerance="10"
     inkscape:pageopacity="0"
     inkscape:pageshadow="2"
     inkscape:window-width="725"
     inkscape:window-height="480"
     id="namedview89"
     showgrid="false"
     inkscape:zoom="0.49166667"
     inkscape:cx="290.84746"
     inkscape:cy="240"
     inkscape:window-x="0"
     inkscape:window-y="0"
     inkscape:window-maximized="0"
     inkscape:current-layer="Capa_1" /><g
     id="g4664"><g
       id="g6"><circle
         id="circle2"
         r="32"
         cy="360"
         cx="48"
         style="fill:#4BA678;" /><path
         id="path4"
         d="M39.2,392H56c17.6,0,31.2,14.4,31.2,31.2V472l0,0H8l0,0v-48.8C8,406.4,22.4,392,39.2,392z"
         style="fill:#4BA678;" /></g><g
       id="g12"><circle
         id="circle8"
         r="32"
         cy="360"
         cx="176"
         style="fill:#F59536;" /><path
         id="path10"
         d="M167.2,392H184c17.6,0,31.2,14.4,31.2,31.2l0,0V472l0,0H136l0,0v-48.8   C136,406.4,150.4,392,167.2,392z"
         style="fill:#F59536;" /></g><g
       id="g22"><circle
         id="circle14"
         r="32"
         cy="360"
         cx="304"
         style="fill:#4BA678;" /><path
         id="path16"
         d="M295.2,392H312c17.6,0,31.2,14.4,31.2,31.2l0,0V472l0,0H264l0,0v-48.8   C264,406.4,278.4,392,295.2,392z"
         style="fill:#4BA678;" /><circle
         id="circle18"
         r="32"
         cy="360"
         cx="432"
         style="fill:#4BA678;" /><path
         id="path20"
         d="M423.2,392H440c17.6,0,31.2,14.4,31.2,31.2l0,0V472l0,0H392l0,0v-48.8   C392,406.4,406.4,392,423.2,392z"
         style="fill:#4BA678;" /></g><path
       id="path24"
       d="M387.2,264H200l-24,32l-24-32H92.8C45.6,264,8,226.4,8,179.2V92.8C8,45.6,45.6,8,92.8,8h294.4  C434.4,8,472,45.6,472,92.8v86.4C472,226.4,434.4,264,387.2,264z"
       style="fill:#92B1F9;" /><rect
       id="rect26"
       height="67.999"
       width="56.799"
       style="fill:#F59536;"
       transform="matrix(-0.7071 0.7071 -0.7071 -0.7071 395.9169 84.0107)"
       y="90.003"
       x="152.16" /><g
       id="g34"><polygon
         id="polygon28"
         points="96,104 160,40 176,80 136,120  "
         style="fill:#F73445;" /><polygon
         id="polygon30"
         points="264,144 200,208 184,168 224,128  "
         style="fill:#F73445;" /><polygon
         id="polygon32"
         points="152,136 72,192 104,232 168,152  "
         style="fill:#F73445;" /></g><path
       id="path36"
       d="M320,200h16c17.6,0,32,14.4,32,32l0,0l0,0h-80l0,0l0,0C288,214.4,302.4,200,320,200z"
       style="fill:#FED966;" /><path
       id="path38"
       d="M8,480h80c4.8,0,8-3.2,8-8v-48.8c0-14.4-8-27.2-20.8-34.4c16-15.2,16.8-40.8,1.6-56.8S36,315.2,20,330.4  c-16,15.2-16.8,40.8-1.6,56.8c0.8,0.8,0.8,0.8,1.6,1.6c-12,7.2-20,20-20,34.4V472C0,476.8,3.2,480,8,480z M48,336  c13.6,0,24,10.4,24,24s-10.4,24-24,24s-24-10.4-24-24S34.4,336,48,336z M16,423.2c0-12.8,10.4-23.2,23.2-23.2H56  c12.8,0,23.2,10.4,23.2,23.2V464H16V423.2z" /><path
       id="path40"
       d="M256,423.2V472c0,4.8,3.2,8,8,8h80c4.8,0,8-3.2,8-8v-48.8c0-14.4-8-27.2-20.8-34.4c16-15.2,16.8-40.8,1.6-56.8  c-15.2-16-40.8-16.8-56.8-1.6c-16,15.2-16.8,40.8-1.6,56.8c0.8,0.8,0.8,0.8,1.6,1.6C264,396,256,408.8,256,423.2z M304,336  c13.6,0,24,10.4,24,24s-10.4,24-24,24s-24-10.4-24-24S290.4,336,304,336z M272,423.2c0-12.8,10.4-23.2,23.2-23.2H312  c12.8,0,23.2,10.4,23.2,23.2V464h-64v-40.8H272z" /><path
       id="path42"
       d="M459.2,388.8c16-15.2,16.8-40.8,1.6-56.8c-15.2-16-40.8-16.8-56.8-1.6c-16,15.2-16.8,40.8-1.6,56.8c0.8,0.8,0.8,0.8,1.6,1.6  c-12,7.2-20,20-20,34.4V472c0,4.8,3.2,8,8,8h80c4.8,0,8-3.2,8-8v-48.8C480,408.8,472,396,459.2,388.8z M432,336  c13.6,0,24,10.4,24,24s-10.4,24-24,24s-24-10.4-24-24S418.4,336,432,336z M464,464h-64v-40.8c0-12.8,10.4-23.2,23.2-23.2H440  c12.8,0,23.2,10.4,23.2,23.2V464H464z" /><path
       id="path44"
       d="M387.2,0H92.8C41.6,0,0,41.6,0,92.8v86.4C0,230.4,41.6,272,92.8,272H148l21.6,28.8c2.4,3.2,8,4,11.2,1.6  c0.8-0.8,0.8-0.8,1.6-1.6L204,272h183.2c51.2,0,92.8-41.6,92.8-92.8V92.8C480,41.6,438.4,0,387.2,0z M464,179.2  c0,42.4-34.4,76.8-76.8,76.8H200c-2.4,0-4.8,0.8-6.4,3.2L176,282.4l-17.6-23.2c-1.6-2.4-4-3.2-6.4-3.2H92.8  C50.4,256,16,221.6,16,179.2V92.8C16,50.4,50.4,16,92.8,16h294.4c42.4,0,76.8,34.4,76.8,76.8V179.2z" /><path
       id="path46"
       d="M272,142.4c-0.8-2.4-2.4-4.8-4.8-5.6l-38.4-15.2L183.2,76L168,37.6c-1.6-4-6.4-6.4-10.4-4.8c-0.8,0.8-1.6,0.8-2.4,1.6  l-64,64c-3.2,3.2-3.2,8,0,11.2c0.8,0.8,1.6,1.6,2.4,1.6l38.4,15.2l8,8l-72,50.4c-4,2.4-4.8,7.2-1.6,11.2c0,0,0,0,0,0.8l32,40  c2.4,3.2,8,4,11.2,1.6c0.8,0,0.8-0.8,1.6-1.6l58.4-72.8l8.8,8.8l15.2,38.4c1.6,4,6.4,6.4,10.4,4.8c0.8-0.8,1.6-0.8,2.4-1.6l64-64  C271.2,148,272,144.8,272,142.4z M173.6,146.4l-16-16L147.2,120L176,91.2l36.8,36.8L184,156.8L173.6,146.4z M156.8,54.4l9.6,24  l-32.8,32.8l-24-9.6L156.8,54.4z M104,219.2l-20.8-25.6l67.2-47.2l6.4,6.4L104,219.2z M203.2,193.6l-9.6-24l32.8-32.8l24,9.6  L203.2,193.6z" /><path
       id="path48"
       d="M336,192h-16c-22.4,0-40,17.6-40,40c0,4.8,3.2,8,8,8h80c4.8,0,8-3.2,8-8C376,209.6,358.4,192,336,192z M297.6,224  c3.2-9.6,12.8-16,22.4-16h16c10.4,0,19.2,6.4,22.4,16H297.6z" /><rect
       id="rect50"
       height="24"
       width="16"
       y="152"
       x="320" /><rect
       id="rect52"
       height="24"
       width="16"
       transform="matrix(-0.7071 0.7071 -0.7071 -0.7071 605.2714 109.3084)"
       y="168.01"
       x="271.997" /><rect
       id="rect54"
       height="16"
       width="24"
       transform="matrix(-0.7071 0.7071 -0.7071 -0.7071 769.1496 41.4086)"
       y="172"
       x="363.999" /><path
       id="path56"
       d="M104,304v64c0,17.6,11.2,32.8,28,38.4c-2.4,5.6-4,11.2-4,17.6v48c0,4.8,3.2,8,8,8h80c4.8,0,8-3.2,8-8v-48.8  c0-14.4-8-27.2-20.8-34.4c16-15.2,16.8-40.8,1.6-56.8s-40.8-16.8-56.8-1.6c-16,15.2-16.8,40.8-1.6,56.8c0.8,0.8,0.8,0.8,1.6,1.6  c-1.6,0.8-3.2,1.6-4.8,3.2c-13.6,0-24-10.4-24-24v-64L104,304L104,304z M176,336c13.6,0,24,10.4,24,24s-10.4,24-24,24  s-24-10.4-24-24S162.4,336,176,336z M184.8,400c12.8,0,23.2,10.4,23.2,23.2V464h-64v-40.8c0-12.8,10.4-23.2,23.2-23.2H184.8z" /><g
       id="g58" /><g
       id="g60" /><g
       id="g62" /><g
       id="g64" /><g
       id="g66" /><g
       id="g68" /><g
       id="g70" /><g
       id="g72" /><g
       id="g74" /><g
       id="g76" /><g
       id="g78" /><g
       id="g80" /><g
       id="g82" /><g
       id="g84" /><g
       id="g86" /></g></svg>